<svg xmlns="http://www.w3.org/2000/svg" viewBox="0 0 473.52 112.15"><defs><style>.cls-1{fill:#333533;}</style></defs><g id="圖層_2" data-name="圖層 2"><g id="圖層_1-2" data-name="圖層 1"><path class="cls-1" d="M39.08,0q7.5,0,16.14,7.36,3.33,1.28,6.24,10.2a30.06,30.06,0,0,1,.84,6.8v3.11q0,8.28-9.06,15-6.8,3.18-6.79,3.68c2,2,3.39,5.86,4.24,11.61v6.8q0,3.18-4.24,7.93l-3.69,2.55c0,.57-1.51,1.13-4.53,1.7H32.29q-4.47,0-6.24-6V69.1q1.14-6.51,8.5-6.51H36a.5.5,0,0,0,.56-.57V60q0-6.94-6.51-8.5L24.36,49q-4-3.1-4-6.51,0-3.75,4.53-6.8,5-.84,11.33-1.41,2.84,0,10.76-4.82a5,5,0,0,0,1.13-3.11V24.07c-.56-4.15-1.32-6.23-2.26-6.23-1.23-1.32-3.49-2.55-6.8-3.68H38.8q-4.39,0-16.14,4.53-2,0-5.1,8.78-2.83,18.77-2.83,27.19Q14.73,77,13,77q-2.26,3.12-5.1,3.12H6.51Q0,78.59,0,72.78q.71-31.5,2.27-37.1Q3.68,21.52,6.51,17a89.21,89.21,0,0,1,4.82-7.93Q22.45,1.63,39.08,0Z"/><path class="cls-1" d="M119.3,31.72q5.39,0,7.36,6-.28,9.84-.28,15.57,0,5.31-3.68,12.46.08,1.77,4.53,10.48v2.55q0,4.45-6,6.23h-1.7q-4.38,0-7.93-8.21Q107,79.44,99.19,80.43H92.11q-3.1,0-7.64-5.38-2.55-3-4-12.75a22.24,22.24,0,0,1-.57-5.38V53q.93-17.28,2.27-17.28,2.26-3.1,5.1-3.11h1.41q4.47,0,6.23,6v4.53c-.56,5.8-.85,9.3-.85,10.48v2.83a36.35,36.35,0,0,0,1.7,9.91h1.42q5.94,0,12.18-4.81,2.83-6,2.83-9.35v-.85q0-16.14,1.42-16.14Q116.33,31.72,119.3,31.72Z"/><path class="cls-1" d="M176.51,31.15h1.41q4.47,0,6.23,6v1.7c0,.24-.19,1.27-.56,3.11v4.54q0,.42-1.42,18.69.29,11.89.28,22.09v.85a52.56,52.56,0,0,0-1.13,9.34c0,2.36.1,5.29.28,8.78q-2.4,6-6.51,6h-1.42q-6.51-1-6.51-8.78V96.29a43,43,0,0,1,1.13-9.35V77.31c0-1.22-.09-3.11-.28-5.66q-3.12,0-9.91-9.91-.93-.15-2.55-4-.57,0-6-6.23-6.22-4.17-6.23-7.64V42.48q0-4.45,5.95-6.23H151q4.74,0,16.42,14.44c.76.71,1.14,1.28,1.14,1.7h.28q.57-5.23.85-15.29Q172.6,31.15,176.51,31.15Z"/><path class="cls-1" d="M225.86,7.93h.56A25.79,25.79,0,0,1,244.55,15q2.55,4.17,2.55,6.23v1.7q0,4.45-5.95,6.23h-1.7c-2.12,0-4.11-1.42-5.95-4.25,0-1.13-2.26-2.08-6.79-2.83h-1.42q-4.81,1.07-4.82,4.81-2.76,4.82-4,16.43v8.78h.57q11.11-.57,11.89-.57,6.87,0,8.78,4.25a4.72,4.72,0,0,1,.57,2.27v1.41q0,4.47-5.95,6.23h-3.12q-11.25.57-12.17.57h-.57q.78,0,1.7,21.52c.19,0,.28.66.28,2v.56q0,4.47-6,6.23h-2q-4.6,0-7.08-7.36c0-1,.1-2.88.29-5.67q-.65-16.7-1.7-16.7h-.29a29.48,29.48,0,0,1-4,.56H197q-4.46,0-6.23-5.94v-1.7q1.33-6.81,8.78-6.8c0-.28.94-.47,2.83-.57V46.45A64.51,64.51,0,0,1,210,15.29q5.24-5.37,7.64-5.38Q220.55,7.93,225.86,7.93Z"/><path class="cls-1" d="M269.26,11h1.41q4.47,0,6.23,5.95v2.83q0,2.78.85,21.81v7.08q0,28.82,3.12,34c1.7,2.5,2.55,4.38,2.55,5.66v1.7q0,4.45-5.95,6.23h-2q-5,0-8.5-10.48-2.62,0-3.4-31.72V41.63q-.84-19.26-.85-21.52,0-6.45,4.25-8.5A4.72,4.72,0,0,1,269.26,11Z"/><path class="cls-1" d="M322.29,28.89q8.77,0,12.74,6.79a10.52,10.52,0,0,1,.57,2.55v1.42q0,4.45-6,6.23H328q-2.34,0-4.81-2.55a2.24,2.24,0,0,0-1.14-.28,24.68,24.68,0,0,0-3.68,6.23c-.42,0-1.37,2.45-2.83,7.36q1.2,4.89,3.12,7.08h4q7.94-.91,7.93-4.53l-2-7.36q0-5.8,6.51-7.37h1.42q6.65,0,8.21,13.88v2c-1.13,5.86-2.17,8.78-3.12,8.78q0,.65-7.36,6.52a45.39,45.39,0,0,1-12.74,2.26q-7.23,0-9.91-1.7-4.75-2.69-7.65-9.91-1.06,0-2.55-10.2,0-3.75,4.53-13.87a49.14,49.14,0,0,1,5.95-8.78A13,13,0,0,1,322.29,28.89Z"/><path class="cls-1" d="M404.84,34.55q5.81,0,7.36,6.51v1.7q0,2.55-3.4,5.67a23,23,0,0,1,5.1,6l.57.28q8.77-8.14,10.19-11.61,6.31-6,8.78-5.95h1.42q4.45,0,6.23,5.95v1.7q0,3.54-5.66,7.64a9.86,9.86,0,0,0-2.27,3.4q-12,11.68-14.16,15.29a7.73,7.73,0,0,1-4.53,2h-1.42q-4.24,0-8.78-8.78-4.74-5.67-5.09-5.67-8,8.07-9.07,8.5-8.21,6.51-11.32,6.51h-2.27q-9.91,0-13.88-20.95l-2.83-9.92V41.35q0-4.47,5.95-6.23h1.7q6.38,0,9.34,16.42,1.27,5.6,2,6.52,1.41,0,15.29-14.16c.61,0,2.12-1.8,4.53-5.38Q401.79,34.54,404.84,34.55Z"/><path class="cls-1" d="M467.29,87.51q4.45,0,6.23,5.95v1.7q0,4.45-5.95,6.23h-1.7q-4.46,0-6.23-6v-1.7q0-4.45,5.95-6.23Z"/></g></g></svg>