<svg xmlns="http://www.w3.org/2000/svg" viewBox="0 0 374 373.95"><defs><style>.cls-1{fill:#e8eddf;}.cls-2{fill:#333533;}</style></defs><g id="圖層_2" data-name="圖層 2"><g id="圖層_1-2" data-name="圖層 1"><path class="cls-1" d="M249.19,150.28c-.07,34-28,61.65-62.25,61.71h-.12c-34,0-62-27.92-62-61.83A62,62,0,0,1,187,88.05h.05A62,62,0,0,1,249.19,150.28Z"/><path class="cls-2" d="M187.21,0H187C83.83,0,0,83.6,0,186.56,0,290.09,83.67,374,187,374h0c103.08,0,186.92-83.85,187-187S290.46.12,187.21,0Zm87.2,336.37q-44.09,23.75-87.64,23.76-46.36,0-92.29-27c-4.6-2.7-6-5.88-6.06-11.17-.28-36.7,14.45-65.07,46.1-84,14-8.39,29.22-12,45.29-12,2.34,0,4.71.07,7.09.23,2.42-.17,4.84-.25,7.23-.25,17.78,0,34.55,4.54,49.7,14.67,27,18,40.3,43.57,41.86,76C286.17,326.56,282.82,331.84,274.41,336.37ZM124.82,150.16A62,62,0,0,1,187,88.05h.05a62,62,0,0,1,62.13,62.23c-.07,34-28,61.65-62.25,61.71h-.12C152.82,212,124.81,184.07,124.82,150.16ZM300,317.3c-3.08-50-27.76-83.48-74.75-101.28,26.39-17.17,39.88-41.14,37.64-72.65-1.46-20.52-10.74-37.55-26.22-51.11a74.09,74.09,0,0,0-49-18.36,78.07,78.07,0,0,0-58.85,27c-27.06,31-25.65,87.49,19.82,115.16Q78.66,242.4,74,316.89C33.86,285.65,2.05,219,18.28,148.56,35.91,72,100.57,19.4,174.55,14.31q6.33-.44,12.52-.43c77.8,0,140.51,50.41,163.32,116.08C375.66,202.76,348.18,277.56,300,317.3Z"/><path class="cls-1" d="M274.41,336.37q-44.09,23.75-87.64,23.76-46.36,0-92.29-27c-4.6-2.7-6-5.88-6.06-11.17-.28-36.7,14.45-65.07,46.1-84,14-8.39,29.22-12,45.29-12,2.34,0,4.71.07,7.09.23,2.42-.17,4.84-.25,7.23-.25,17.78,0,34.55,4.54,49.7,14.67,27,18,40.3,43.57,41.86,76C286.17,326.56,282.82,331.84,274.41,336.37Z"/><path class="cls-1" d="M300,317.3c-3.08-50-27.76-83.48-74.75-101.28,26.39-17.17,39.88-41.14,37.64-72.65-1.46-20.52-10.74-37.55-26.22-51.11a74.09,74.09,0,0,0-49-18.36,78.07,78.07,0,0,0-58.85,27c-27.06,31-25.65,87.49,19.82,115.16Q78.66,242.4,74,316.89C33.86,285.65,2.05,219,18.28,148.56,35.91,72,100.57,19.4,174.55,14.31q6.33-.44,12.52-.43c77.8,0,140.51,50.41,163.32,116.08C375.66,202.76,348.18,277.56,300,317.3Z"/></g></g></svg>