<svg xmlns="http://www.w3.org/2000/svg" viewBox="0 0 481.3 469.72"><defs><style>.cls-1{isolation:isolate;}.cls-2{fill:#c18f60;}.cls-3{fill:#d19f6d;}.cls-4{fill:#a97950;}.cls-5{fill:#a97951;}.cls-6{fill:#66472f;}.cls-7{fill:#6b4a2e;}.cls-8{fill:#6a492e;}.cls-9{fill:#6a492c;}.cls-10{fill:#794e28;}.cls-11{fill:#6f4722;}.cls-12{opacity:0.5;mix-blend-mode:multiply;}.cls-13{fill:#333533;}</style></defs><g class="cls-1"><g id="圖層_2" data-name="圖層 2"><g id="圖層_1-2" data-name="圖層 1"><path class="cls-2" d="M205,136.17c-12.23-4-24.52-7.83-36.76-11.84-9.24-3-18.39-6.32-27.64-9.31-10.64-3.43-21.37-6.56-32-10-9.26-3-18.41-6.35-27.7-9.26-16.37-5.13-32.78-10.07-49.19-15-6.12-1.84-12.31-3.4-18.44-5.22-.72-.22-1.21-1.26-1.8-1.92C3.72,75,1.69,77.4,1.64,85.32Q.8,231.23,0,377.11c0,1.49.19,3,.3,4.46.29,4.19,2.68,6.57,6.51,7.88,9.91,3.4,19.78,6.87,29.66,10.3q37.46,13,74.87,26c20.07,7,40.09,14.18,60.15,21.23q29.14,10.24,58.32,20.41c3.07,1.06,6.3,1.6,9.46,2.36.27-46.78.41-93.56.84-140.32.31-33.59,1-67.16,1.53-100.74q.66-39.87,1.43-79.76C230.4,144.65,217.74,140.34,205,136.17ZM38.59,364.92l-4.7-4.17c.24,5.61.55,11.22.69,16.83a52.47,52.47,0,0,1-.5,5.87c-4.5-.46-4.26-3.32-4.1-5.91.32-5.61.79-11.21,1.2-16.8l-5.43-1c-1.11-1-2.68-2.5-4.26-4l-5.23-.56c-.81-3.58,1-5.87,3.66-7.4a24,24,0,0,1,6.09-2c2.24-.59,4.51-1,7.24-1.56l1.15,3.18c6.94,4.47,13,9.85,14.5,19.41C45.07,365.41,42.27,361.67,38.59,364.92Zm27.57-6.46c3.33,5.39,6.45,10.49,9.85,16l-4.2,0-.09,15.64c-4.13-1.5-7.48-2.73-11-4l.09-15.49-5.11-2.75Zm-6,33.43.33-1.26a51.35,51.35,0,0,1,6.42,1.56c8.8,3.34,17.56,6.82,26.29,10.33.3.12.22,1.17.32,1.81C89.46,404.5,62.77,394.47,60.19,391.89Zm33.66-8.4-.08,14.07L83,394.33l.08-15.74-4.7-2.84,10.18-9.19c3.6,5.95,6.47,10.68,9.55,15.78Z"/><path class="cls-3" d="M479.7,381.51c0,6.13-1.22,7.85-7.06,9.85q-30,10.26-60,20.37Q377,423.8,341.39,435.87q-28.83,9.7-57.67,19.31-20.79,7-41.58,13.9a25.33,25.33,0,0,1-2.87.64c.27-46.78.41-93.56.84-140.32.31-33.59,1-67.16,1.53-100.74q.66-39.87,1.43-79.76a20.21,20.21,0,0,0,2.92-.48q20.07-6.37,40.12-12.79c12.56-4,25.14-8,37.69-12.07,3.21-1,6.32-2.37,9.47-3.56l2.52.81c.7,16.85,1.38,33.29,2.1,50.46l3.29-3.94c1.68.76,3,1.37,4.37,2,1.16-1.48,2.16-2.75,3.12-4l5.24,1.2,2.67-4.09,4.76,2c1.24-1.48,2.37-2.81,3.4-4l5,1.27,2.88-4.07,4.73,1.82,3-4.08,4.87,1.3c1.26-1.49,2.31-2.74,3.39-4l4.6,2a8.14,8.14,0,0,0,.85-.94c3.73-5.69,1.83-12,1.74-18-.2-11.62-.83-23.24-1.29-34.85,7.62-2.15,15.29-4.13,22.84-6.48,15-4.67,29.95-9.36,44.79-14.43,3.19-1.09,7.21-1,9.33-4.51l8.68,3.33c.43,2.75,1.21,5.31,1.19,7.87Q480.58,234.05,479.7,381.51Z"/><path class="cls-4" d="M333.27,120c-3.15,1.19-6.26,2.52-9.47,3.56-12.55,4.07-25.13,8.06-37.69,12.07Q266,142,246,148.42a20.21,20.21,0,0,1-2.92.48c-12.67-4.25-25.33-8.56-38-12.73-12.23-4-24.52-7.83-36.76-11.84-9.24-3-18.39-6.32-27.64-9.31-10.64-3.43-21.37-6.56-32-10-9.26-3-18.41-6.35-27.7-9.26-16.37-5.13-32.78-10.07-49.19-15-6.12-1.84-12.31-3.4-18.44-5.22-.72-.22-1.21-1.26-1.8-1.92C24.25,69.39,37,65.11,49.81,61q27-8.79,54.13-17.37a58.19,58.19,0,0,1,6.74-1.33c1.38,1,2.63,2.25,4.15,2.77,12.7,4.31,25.49,8.39,38.19,12.71C171.35,64,189.63,70.4,208,76.66q35.24,12,70.5,23.94c17.71,6,35.46,11.88,53.17,17.87C332.27,118.69,332.73,119.48,333.27,120Z"/><path class="cls-5" d="M471.43,75.37c-2.12,3.5-6.14,3.42-9.33,4.51-14.84,5.07-29.82,9.76-44.79,14.43-7.55,2.35-15.22,4.33-22.84,6.48L372.42,93.5c-13.79-4.59-27.57-9.25-41.4-13.74-18.72-6.1-37.49-12-56.23-18.09-11-3.55-22-7.18-33-10.75q-17.94-5.82-35.89-11.58c-11.32-3.65-22.65-7.24-33.94-11-2.85-.94-5.56-2.33-8.33-3.51,4.52-1.63,9-3.37,13.56-4.86,19.43-6.31,38.93-12.48,58.34-18.87a20.47,20.47,0,0,1,13.6.11Q315.54,23.54,382,45.62,426.71,60.52,471.43,75.37Z"/><path class="cls-6" d="M394,153.67a8.14,8.14,0,0,1-.85.94l-4.6-2c-1.08,1.3-2.13,2.55-3.39,4l-4.87-1.3-3,4.08-4.73-1.82-2.88,4.07-5-1.27c-1,1.21-2.16,2.54-3.4,4l-4.76-2-2.67,4.09-5.24-1.2c-1,1.24-2,2.51-3.12,4-1.4-.65-2.69-1.26-4.37-2l-3.29,3.94c-.72-17.17-1.4-33.61-2.1-50.46l-2.52-.81c-.54-.52-1-1.31-1.65-1.53-17.71-6-35.46-11.9-53.17-17.87Q243.19,88.69,208,76.66C189.63,70.4,171.35,64,153,57.74c-12.7-4.32-25.49-8.4-38.19-12.71-1.52-.52-2.77-1.82-4.15-2.77,1.65-.71,3.24-1.56,4.94-2.11q23-7.53,46.11-15a12.24,12.24,0,0,1,1.92-.34c2.77,1.18,5.48,2.57,8.33,3.51,11.29,3.75,22.62,7.34,33.94,11q17.94,5.79,35.89,11.58c11,3.57,22,7.2,33,10.75,18.74,6,37.51,12,56.23,18.09,13.83,4.49,27.61,9.15,41.4,13.74l22.05,7.29c.46,11.61,1.09,23.23,1.29,34.85C395.85,141.67,397.75,148,394,153.67Z"/><path class="cls-7" d="M31.18,360.73l-5.44-1-4.25-4-5.23-.57c-.81-3.59,1-5.87,3.66-7.4a24.8,24.8,0,0,1,6.1-2c2.23-.59,4.5-1,7.23-1.56l1.15,3.18c6.94,4.47,13,9.85,14.5,19.41-3.84-1.43-6.64-5.18-10.32-1.92l-4.68-4.17Z"/><path class="cls-8" d="M60.76,386.07l.09-15.48-5.1-2.76,10.42-9.37,9.83,16-4.2,0-.08,15.65Z"/><path class="cls-9" d="M88.57,366.57c3.6,5.94,6.47,10.67,9.55,15.77l-4.27,1.16-.08,14.07L83,394.33l.09-15.73-4.7-2.85Z"/><path class="cls-10" d="M60.52,390.63a52.72,52.72,0,0,1,6.42,1.56c8.8,3.35,17.56,6.82,26.29,10.33.3.12.22,1.17.33,1.81-4.1.17-30.79-9.85-33.37-12.44Z"/><path class="cls-11" d="M31.18,360.73l2.72,0c.23,5.61.54,11.22.68,16.84a50.33,50.33,0,0,1-.51,5.86c-4.5-.47-4.24-3.32-4.09-5.91C30.3,371.93,30.77,366.33,31.18,360.73Z"/><g class="cls-12"><path class="cls-13" d="M328.05,391.14a7.56,7.56,0,0,1-1,3.72,9.2,9.2,0,0,1-2.65,3.05,23.23,23.23,0,0,1-5.57,2.54l-9,3.15V382.86l9.74-3.41a15.54,15.54,0,0,1,3.11-.84,3.93,3.93,0,0,1,2.89.43,3.53,3.53,0,0,1,1.52,3.14,5.55,5.55,0,0,1-.85,2.81,7.28,7.28,0,0,1-2.57,2.63C326.59,387.1,328.05,388.28,328.05,391.14Zm-6.55-6.29c0-.85-.4-1.24-1.19-1.17a13.55,13.55,0,0,0-2.6.74l-2.23.79v3.64l2.4-.84a12.43,12.43,0,0,0,2.43-1.05A2.42,2.42,0,0,0,321.5,384.85Zm.76,7.87c0-1-.44-1.43-1.33-1.4a8.58,8.58,0,0,0-2.49.62l-3,1v4.21l3.19-1.12A11.21,11.21,0,0,0,321,395,2.73,2.73,0,0,0,322.26,392.72Z"/><path class="cls-13" d="M345.4,391.1l-4.86,1.71v-1.87a9.23,9.23,0,0,1-4.94,3.86,4.62,4.62,0,0,1-2.8.21,2.24,2.24,0,0,1-1.5-1.14,6.51,6.51,0,0,1-.68-3.15v-9.41l5.29-1.85V387a9,9,0,0,0,.19,2.34c.27.71.81.93,1.64.64a3.65,3.65,0,0,0,2-1.93,9,9,0,0,0,.39-3.28V378l5.23-1.83Z"/><path class="cls-13" d="M363.51,369.75,358,386.9a20.91,20.91,0,0,1-2.06,4.88,8.42,8.42,0,0,1-4.33,3.18,21.24,21.24,0,0,1-3.33.8l-.42-3.8a9.86,9.86,0,0,0,2.45-.56,4.18,4.18,0,0,0,2.41-3l-5.82-12.85,5.51-1.94,3,8.44,2.85-10.5Z"/><path class="cls-13" d="M380.32,362.56l-9.38,3.29v3.61l8.08-2.83V371l-8.08,2.84v8.39l-5.62,2V363.41l15-5.26Z"/><path class="cls-13" d="M388,376.19l-4.86,1.71V357.16l4.86-1.71Z"/><path class="cls-13" d="M407.08,361.93a10.61,10.61,0,0,1-1.92,6,12.12,12.12,0,0,1-6.24,4.73c-2.57.9-4.59.83-6.08-.21s-2.09-2.52-2.09-4.72a10.67,10.67,0,0,1,2.06-6.24,12,12,0,0,1,6.08-4.5c2.69-.95,4.78-.84,6.27.31A5.45,5.45,0,0,1,407.08,361.93Zm-5.31,1.92a3.84,3.84,0,0,0-.65-2.42,1.79,1.79,0,0,0-2.18-.4,4,4,0,0,0-2,1.65,5.72,5.72,0,0,0-.85,3.2,3.49,3.49,0,0,0,.76,2.48,1.82,1.82,0,0,0,2.12.3,3.9,3.9,0,0,0,2-1.6A5.75,5.75,0,0,0,401.77,363.85Z"/><path class="cls-13" d="M432.62,345.55l-5.22,16.83L422.71,364l-2.52-7.51-2.48,9.26L413,367.45l-5.2-13.18,5.17-1.82,2.37,7.73,2.49-9.4,4.78-1.68,2.57,7.69,2.31-9.43Z"/><path d="M337.06,273.27q-9.21,6.86-13.75,12.45a92.41,92.41,0,0,1,14-12.63Zm1.11,7.72c2-1.8,4.05-3.49,6.13-5.1A39.83,39.83,0,0,0,338.17,281Z"/><path d="M319.92,312.79l.24-2.81A19.38,19.38,0,0,0,319.92,312.79Zm0,0,.24-2.81A19.38,19.38,0,0,0,319.92,312.79Z"/><path class="cls-13" d="M427.69,298c-.24-4.93-.82-9.72-1.23-14.58-.26-3.13-.47-6.29-.74-9.43-.41-4.8-.87-9.58-1.27-14.38-.39-4.6-.71-9.22-1.08-13.82-.41-5-.85-9.93-1.28-14.9-.33-3.78-.63-7.57-1-11.31-.21-1.93-2-2.75-4.06-2-4.88,1.69-9.75,3.41-14.62,5.12l-1.62.57c-.17-19.42-13.29-29.72-32.68-22.92s-32.52,26.3-32.68,45.83l-1.62.57q-7.31,2.56-14.62,5.13a6.31,6.31,0,0,0-4.07,4.88c-.41,4-.7,8-1,12-.43,5.27-.87,10.53-1.28,15.79-.38,4.87-.7,9.71-1.08,14.58-.41,5.09-.87,10.19-1.28,15.28-.26,3.32-.47,6.63-.74,9.95-.41,5.15-1,10.34-1.23,15.44s-1.48,10.79-.16,15.53c2.23,8,9.48,11.8,18.45,9.45,2.11-.55,4.24-1.18,6.36-1.92l35-12.23,35-12.29c2.12-.75,4.24-1.61,6.36-2.54a33.7,33.7,0,0,0,18.44-22.39C429.18,307.74,427.94,303.05,427.69,298Zm-70.27-81.86a36.84,36.84,0,0,1,10.65-6.47,23.56,23.56,0,0,1,10.64-1c8.86,1.22,11.91,8.4,12.16,18l-45.6,16C345.52,232.88,348.56,223.56,357.42,216.13Zm61,97.51c-.51,6.13-6,11.73-11.76,13.72q-19.28,6.74-38.55,13.51L329.51,354.4c-5.71,2-11.24.29-11.75-5.48a70.58,70.58,0,0,1,.08-10.37c.3-5.11.82-10.29,1.25-15.44.27-3.26.52-6.52.79-9.79,0-.17,0-.35,0-.53a19.38,19.38,0,0,1,.24-2.81s0,0,0,0c1.58-10.48,11-22.22,18-29a39.83,39.83,0,0,1,6.13-5.1h0a99.7,99.7,0,0,1,28.05-15.4q18-6.3,18,2.74,0,7.65-13.88,20.3c-1.83.54-3.28,1-4.37,1.39q-6.33,2.2-9.16,5.06t-4.72,8.85a28.42,28.42,0,0,0,4.23-1,42.38,42.38,0,0,0,9.26-4.54q11.87-2.26,17-.54c3.39,1.14,5.08,3.79,5.08,7.92q0,8-9.16,16.85a59.37,59.37,0,0,1-22,13.39q-15.65,5.47-15.64-.82a48.68,48.68,0,0,1,1.43-7.95l8.54-35.85c1.44-5.77,2.15-8.95,2.15-9.55,0-2.37-1.34-3.08-4-2.13q-3.45,1.2-12.06,6.72a2.88,2.88,0,0,1,1.57,2.65,33.14,33.14,0,0,1-1.11,6.44L334.23,329q-2,8.22-2,10.27,0,8.65,17.93,2.36,24.38-8.53,41.52-23T408.86,292q0-6.15-6.55-8.69t-18.09-.91Q404,266.15,404,255.51q0-5.76-7.46-6.68t-19.59,3.32a148.91,148.91,0,0,0-38.53,20.14l-1.08.8a92.41,92.41,0,0,0-14,12.63c-.52.63-1,1.26-1.41,1.87,0-.09,0-.18,0-.27.38-4.55.82-9.1,1.19-13.65s.69-9.12,1-13.76L412,229.12c.35,4.39.67,8.72,1,13,.4,4.53.86,9,1.26,13.56.29,3.24.49,6.51.76,9.75.39,4.7.81,9.38,1.22,14.08.27,3.07.52,6.15.79,9.23.42,4.85.95,9.66,1.25,14.56A70.79,70.79,0,0,1,418.38,313.64Z"/><path d="M323.31,285.72c-.52.63-1,1.26-1.41,1.87,0-.09,0-.18,0-.27C322.37,286.79,322.83,286.25,323.31,285.72Z"/></g><g class="cls-12"><path class="cls-13" d="M66.16,127a3.82,3.82,0,0,1-.86,2.59A3.18,3.18,0,0,1,63,130.72a15.33,15.33,0,0,1-4.72-.95l-7.63-2.33v-17.6L59,112.37a14.47,14.47,0,0,1,2.63,1,6.74,6.74,0,0,1,2.45,2,5.79,5.79,0,0,1,1.3,3.51,2.62,2.62,0,0,1-2.91,2.71Q66.16,123.38,66.16,127Zm-5.56-9a1.83,1.83,0,0,0-1-1.66,12.7,12.7,0,0,0-2.21-.81L55.49,115v3.09l2,.62a8.35,8.35,0,0,0,2.06.47C60.26,119.15,60.6,118.78,60.6,118Zm.64,7.1a2.17,2.17,0,0,0-1.12-1.93,9.3,9.3,0,0,0-2.11-.86l-2.52-.77v3.57l2.71.83a6.84,6.84,0,0,0,2,.42Q61.24,126.33,61.24,125.13Z"/><path class="cls-13" d="M80.88,136.65l-4.12-1.26v-1.58c-1,.9-2.36,1.08-4.2.51A6,6,0,0,1,70.19,133a4.85,4.85,0,0,1-1.27-1.8,8,8,0,0,1-.58-3.06v-8l4.49,1.37v6.38A8.41,8.41,0,0,0,73,130a2,2,0,0,0,1.39,1.45,1.42,1.42,0,0,0,1.72-.5,5.54,5.54,0,0,0,.34-2.56v-5.75l4.43,1.35Z"/><path class="cls-13" d="M96.26,128.62l-4.66,11.5a8,8,0,0,1-1.75,3c-.84.69-2.07.79-3.67.3a22.85,22.85,0,0,1-2.83-1.18L83,138.76a9.62,9.62,0,0,0,2.08.9q1.4.43,2-1.2l-4.94-14.14,4.68,1.43,2.56,8.84,2.42-7.32Z"/><path class="cls-13" d="M60.85,139.12l-6.35-1.94v2.45L60,141.3v2.93l-5.47-1.68v5.68l-3.81-1.16V133l10.16,3.11Z"/><path class="cls-13" d="M66.05,151.77l-3.29-1v-14l3.29,1Z"/><path class="cls-13" d="M79,150.59a3.93,3.93,0,0,1-1.3,3.22q-1.5,1.26-4.22.43a7.77,7.77,0,0,1-4.12-2.85,6.74,6.74,0,0,1-1.41-4.12A3.89,3.89,0,0,1,69.3,144q1.5-1.14,4.12-.35a7.73,7.73,0,0,1,4.24,3A6.75,6.75,0,0,1,79,150.59Zm-3.59-1.06a4.13,4.13,0,0,0-.44-1.93,2.4,2.4,0,0,0-1.47-1.24,1.37,1.37,0,0,0-1.38.21,2.34,2.34,0,0,0-.58,1.8,3.91,3.91,0,0,0,.52,2,2.41,2.41,0,0,0,1.44,1.15,1.31,1.31,0,0,0,1.33-.21A2.29,2.29,0,0,0,75.37,149.53Z"/><path class="cls-13" d="M96.26,150.85l-3.54,9.07-3.18-1-1.7-6.2-1.68,5.17-3.22-1L79.42,145.7l3.5,1.07,1.61,6.29,1.68-5.26,3.24,1,1.74,6.34,1.57-5.35Z"/><path class="cls-13" d="M46.45,135.74c-.08-1.64-.27-3.31-.4-5-.08-1.06-.15-2.13-.24-3.2-.13-1.63-.28-3.27-.41-4.91s-.23-3.12-.35-4.69-.27-3.38-.41-5.08c-.11-1.28-.2-2.57-.33-3.86A1.93,1.93,0,0,0,43,107.51l-4.71-1.45-.53-.16A15.29,15.29,0,0,0,27.21,91.58c-6.26-1.91-10.5,1.6-10.55,7.87l-.52-.16-4.72-1.44c-.67-.2-1.24.09-1.31.72-.13,1.21-.23,2.44-.33,3.66-.14,1.61-.29,3.22-.42,4.83s-.22,3-.35,4.47-.28,3.11-.41,4.66c-.09,1-.15,2-.24,3.06C8.23,120.82,8,122.37,8,124s-.48,3.17-.06,5a10.24,10.24,0,0,0,6,7c.68.26,1.36.51,2.05.72l11.29,3.47,11.29,3.44c.68.21,1.37.38,2,.53,2.89.63,5.23-.72,6-3.32C46.93,139.2,46.53,137.43,46.45,135.74ZM23.77,94.43a7.72,7.72,0,0,1,3.44.17,11.26,11.26,0,0,1,3.43,1.94,10.44,10.44,0,0,1,3.93,8.37l-14.72-4.5C19.93,97.32,20.91,95,23.77,94.43Zm19.67,44.39c-.16,1.87-1.95,2.5-3.79,1.93l-12.44-3.81-12.44-3.8a5.37,5.37,0,0,1-3.8-4.26,22.94,22.94,0,0,1,0-3.32c.09-1.59.26-3.15.4-4.72.09-1,.17-2,.26-3,0-.06,0-.11,0-.17a4.71,4.71,0,0,1,.08-.85h0c.51-3,3.55-4.83,5.81-5.53a6.27,6.27,0,0,1,2-.35h0a22.06,22.06,0,0,1,9.05,1c3.87,1.18,5.81,2.75,5.81,4.69,0,1.65-1.5,2.85-4.48,3.61l-1.41-.48a5.24,5.24,0,0,0-3-.3A2.86,2.86,0,0,0,24,121.29a9.7,9.7,0,0,0,1.37.56,10.21,10.21,0,0,0,3,.5,20.06,20.06,0,0,1,5.47,3.41,5,5,0,0,1,1.64,3.64c0,1.71-1,2.88-3,3.49a12,12,0,0,1-7.1-.33c-3.37-1-5.05-2.23-5.05-3.58a10.76,10.76,0,0,1,.46-2.26L23.61,117a21.35,21.35,0,0,0,.69-2.63,1.57,1.57,0,0,0-1.3-1.55,16.53,16.53,0,0,0-3.89-.38,2,2,0,0,1,.5,1.19,7.67,7.67,0,0,1-.36,1.84l-3,10.52a14.59,14.59,0,0,0-.63,2.9c0,1.86,1.92,3.38,5.78,4.56q7.86,2.42,13.4,1.36t5.53-5a6.29,6.29,0,0,0-2.11-4.19,21.84,21.84,0,0,0-5.84-4.13q6.38-1.06,6.38-4.5c0-1.23-.81-2.48-2.41-3.73a19.46,19.46,0,0,0-6.33-3.08,34.17,34.17,0,0,0-12.43-1.66l-.35,0a13.32,13.32,0,0,0-4.52,1.11,2.93,2.93,0,0,0-.45.3.22.22,0,0,1,0-.08c.12-1.39.26-2.77.38-4.15s.22-2.8.34-4.22l28.34,8.67c.11,1.49.22,3,.34,4.42s.27,3.1.4,4.64c.09,1.11.16,2.21.25,3.31.12,1.6.26,3.2.39,4.8.09,1,.17,2.1.25,3.15.14,1.65.31,3.32.41,5A23.45,23.45,0,0,1,43.44,138.82Z"/></g></g></g></g></svg>