<svg xmlns="http://www.w3.org/2000/svg" viewBox="0 0 830.48 788.39"><defs><style>.cls-1{fill:#333533;}</style></defs><g id="圖層_2" data-name="圖層 2"><g id="圖層_1-2" data-name="圖層 1"><path class="cls-1" d="M613.36,674.08C558.09,709,494.82,739.54,424.1,765.39c-89.26,32.63-141.34,30.52-154.77-6.2-2.06-5.66-6.39-24.09-12.27-83.6L224.39,342.31c-2.77-28.66-6.26-48.42-10.67-60.49a54.91,54.91,0,0,0-8.5-15.15c38-26.71,58.06-37,68.46-40.78,15.34-5.6,17.37-1.11,19.76,5.33.65,2.73,3,15.91,8.29,77.89L332,618.47c5.29,50.1,9.53,65.86,12.28,73.38C371,765,485.93,723,523.71,709.16a463.3,463.3,0,0,0,85.78-41.29Z"/><path class="cls-1" d="M822.74,357.74c22.35,61.14-3.78,131.72-77.68,209.75Q691.41,624.12,618.58,670.8l-.07,0c-1.7,1.09-3.41,2.18-5.12,3.24h0l-3.87-6.21c1.72-1.06,3.42-2.15,5.12-3.24Q666.95,631.08,703,585c44.72-57.28,57.7-112.88,38.54-165.3-15.34-42-44.9-69-87.85-80.16-39.65-10.33-95.55-8.31-170.87,6.25l-4.61.9-3.71,2.84c-19.71,14.95-43.21,27.49-69.87,37.24-2.85,1-6.06,2.05-9.56,3,1.9-17.15,6.16-30.28,12.75-39.18,6.8-9.09,23.3-23,63.41-37.68,9.23-3.38,21.6-7.43,36.76-12l5.57-1.69,1.29-1.48,2.52-3,2.32,2.32-2.58,2.62,59.36-8.64c67.64-9.83,124.47-8.13,169,5.09C786.78,308.42,812.08,328.57,822.74,357.74Z"/><path class="cls-1" d="M660.78,44.4c19.27,52.72-14.92,124.25-101.66,212.49l-39.47,40.19-2.32-2.32c68.63-80.33,92.78-144.51,73.89-196.2-12.1-33.11-38.49-52.94-76.39-57.42C481,37.14,437.84,45,383,65c-86.51,31.63-163.28,78.3-228.17,138.65-13.13,9.3-29.59,26.22-46.56,47.9C76.87,291.66,37.36,351.81,21.05,407.34L0,331.45c1.22-2.52,2.47-5.05,3.84-7.58C26.38,288,66.18,245.37,104.39,211.35c2.56-2.26,5.15-4.54,7.72-6.77C196.44,131.77,298.25,73.24,414.75,30.66,480.75,6.53,538-3.43,584.75,1,626.7,5,651.56,19.19,660.78,44.4Z"/></g></g></svg>