<svg xmlns="http://www.w3.org/2000/svg" viewBox="0 0 398 397.95"><defs><style>.cls-1{fill:#e8eddf;}.cls-2{fill:#333533;}</style></defs><g id="圖層_2" data-name="圖層 2"><g id="圖層_1-2" data-name="圖層 1"><path class="cls-1" d="M261.19,162.28c-.07,34-28,61.65-62.25,61.71h-.12c-34,0-62-27.92-62-61.83A62,62,0,0,1,199,100.05h.05A62,62,0,0,1,261.19,162.28Z"/><path class="cls-1" d="M382.41,121.59A198.87,198.87,0,0,0,199.22,0H199a199,199,0,0,0-77.47,382.28A197.52,197.52,0,0,0,199,398c109.69,0,199-89.26,199-198.95A197.45,197.45,0,0,0,382.41,121.59ZM199,386h0C95.67,386,12,302.09,12,198.56,12,95.6,95.83,12,199,12h.21C302.46,12.12,386.06,95.79,386,199S302.11,385.94,199,386Z"/><path class="cls-2" d="M199.21,12H199C95.83,12,12,95.6,12,198.56,12,302.09,95.67,386,199,386h0c103.08,0,186.92-83.85,187-187S302.46,12.12,199.21,12Zm87.2,336.37q-44.09,23.75-87.64,23.76-46.36,0-92.29-27c-4.6-2.7-6-5.88-6.06-11.17-.28-36.7,14.45-65.07,46.1-84,14-8.39,29.22-12,45.29-12,2.34,0,4.71.07,7.09.23,2.42-.17,4.84-.25,7.23-.25,17.78,0,34.55,4.54,49.7,14.67,27,18,40.3,43.57,41.86,76C298.17,338.56,294.82,343.84,286.41,348.37ZM136.82,162.16A62,62,0,0,1,199,100.05h.05a62,62,0,0,1,62.13,62.23c-.07,34-28,61.65-62.25,61.71h-.12C164.82,224,136.81,196.07,136.82,162.16ZM312,329.3c-3.08-50-27.76-83.48-74.75-101.28,26.39-17.17,39.88-41.14,37.64-72.65-1.46-20.52-10.74-37.55-26.22-51.11a74.09,74.09,0,0,0-49-18.36,78.07,78.07,0,0,0-58.85,27c-27.06,31-25.65,87.49,19.82,115.16Q90.66,254.4,86,328.89c-40.18-31.24-72-97.85-55.76-168.33C47.91,84,112.57,31.4,186.55,26.31q6.33-.43,12.52-.43c77.8,0,140.51,50.41,163.32,116.08C387.66,214.76,360.18,289.56,312,329.3Z"/><path class="cls-1" d="M286.41,348.37q-44.09,23.75-87.64,23.76-46.36,0-92.29-27c-4.6-2.7-6-5.88-6.06-11.17-.28-36.7,14.45-65.07,46.1-84,14-8.39,29.22-12,45.29-12,2.34,0,4.71.07,7.09.23,2.42-.17,4.84-.25,7.23-.25,17.78,0,34.55,4.54,49.7,14.67,27,18,40.3,43.57,41.86,76C298.17,338.56,294.82,343.84,286.41,348.37Z"/><path class="cls-1" d="M312,329.3c-3.08-50-27.76-83.48-74.75-101.28,26.39-17.17,39.88-41.14,37.64-72.65-1.46-20.52-10.74-37.55-26.22-51.11a74.09,74.09,0,0,0-49-18.36,78.07,78.07,0,0,0-58.85,27c-27.06,31-25.65,87.49,19.82,115.16Q90.66,254.4,86,328.89c-40.18-31.24-72-97.85-55.76-168.33C47.91,84,112.57,31.4,186.55,26.31q6.33-.43,12.52-.43c77.8,0,140.51,50.41,163.32,116.08C387.66,214.76,360.18,289.56,312,329.3Z"/></g></g></svg>